#tb 0: 1/25
#media_type 0: video
#codec_id 0: rawvideo
#dimensions 0: 352x288
#sar 0: 0/1
0,          0,          0,        1,   304128, 0x9b9e09b2
0,          1,          1,        1,   304128, 0x33addb48
0,          2,          2,        1,   304128, 0xd5b973e9
0,          3,          3,        1,   304128, 0xcb847cb6
0,          4,          4,        1,   304128, 0xf64536f0
0,          5,          5,        1,   304128, 0xda17564a
0,          6,          6,        1,   304128, 0x85e33692
0,          7,          7,        1,   304128, 0x081a657f
0,          8,          8,        1,   304128, 0xf15f69ee
0,          9,          9,        1,   304128, 0x0a2dd737
0,         10,         10,        1,   304128, 0x14ae5b1b
0,         11,         11,        1,   304128, 0x0b654f1e
0,         12,         12,        1,   304128, 0x35a11962
0,         13,         13,        1,   304128, 0x010b7514
0,         14,         14,        1,   304128, 0x5db20c43
0,         15,         15,        1,   304128, 0xafb6c615
0,         16,         16,        1,   304128, 0xa671a3ac
0,         17,         17,        1,   304128, 0x1a0fc75d
0,         18,         18,        1,   304128, 0xe3a05ff1
0,         19,         19,        1,   304128, 0x58437c36
0,         20,         20,        1,   304128, 0x1303f940
0,         21,         21,        1,   304128, 0xec2f3248
0,         22,         22,        1,   304128, 0xe9ff7d49
0,         23,         23,        1,   304128, 0x3972a1ed
0,         24,         24,        1,   304128, 0xee2311df
0,         25,         25,        1,   304128, 0x5b62c4d9
0,         26,         26,        1,   304128, 0x9e1e52e2
0,         27,         27,        1,   304128, 0x60c56d07
0,         28,         28,        1,   304128, 0x313a8534
0,         29,         29,        1,   304128, 0x9f548f56
0,         30,         30,        1,   304128, 0x8d894ed3
0,         31,         31,        1,   304128, 0x3ce0500a
0,         32,         32,        1,   304128, 0xb8dd487a
0,         33,         33,        1,   304128, 0xdde97863
0,         34,         34,        1,   304128, 0x8d9d1689
0,         35,         35,        1,   304128, 0x703634dd
0,         36,         36,        1,   304128, 0x3e321210
0,         37,         37,        1,   304128, 0x6b5a1a8c
0,         38,         38,        1,   304128, 0xffc1015d
0,         39,         39,        1,   304128, 0x4abc4495
0,         40,         40,        1,   304128, 0x3c03ada9
0,         41,         41,        1,   304128, 0x6fa0344a
0,         42,         42,        1,   304128, 0x36572833
0,         43,         43,        1,   304128, 0x31646c4d
0,         44,         44,        1,   304128, 0xa22d18c7
0,         45,         45,        1,   304128, 0xf3b058f2
0,         46,         46,        1,   304128, 0x4c6be349
0,         47,         47,        1,   304128, 0xda98914a
0,         48,         48,        1,   304128, 0x1a6d2f58
0,         49,         49,        1,   304128, 0x12684280
